<mxfile host="Electron" modified="2023-11-15T19:31:49.691Z" agent="Mozilla/5.0 (Macintosh; Intel Mac OS X 10_15_7) AppleWebKit/537.36 (KHTML, like Gecko) draw.io/22.0.3 Chrome/114.0.5735.289 Electron/25.8.4 Safari/537.36" etag="0FDgTzKkyAl7vGOlxzvw" version="22.0.3" type="device">
  <diagram name="Page-1" id="ckpVUqzXoxXTCGzQP8YA">
    <mxGraphModel dx="538" dy="404" grid="1" gridSize="10" guides="1" tooltips="1" connect="1" arrows="1" fold="1" page="1" pageScale="1" pageWidth="827" pageHeight="1169" math="0" shadow="0">
      <root>
        <mxCell id="0" />
        <mxCell id="1" parent="0" />
        <mxCell id="kAQAbklGU4Ek4B-4lp5r-1" value="" style="ellipse;html=1;shape=startState;fillColor=#000000;strokeColor=#ff0000;" vertex="1" parent="1">
          <mxGeometry x="175" y="30" width="30" height="30" as="geometry" />
        </mxCell>
        <mxCell id="kAQAbklGU4Ek4B-4lp5r-2" value="" style="edgeStyle=orthogonalEdgeStyle;html=1;verticalAlign=bottom;endArrow=open;endSize=8;strokeColor=#ff0000;rounded=0;" edge="1" source="kAQAbklGU4Ek4B-4lp5r-1" parent="1">
          <mxGeometry relative="1" as="geometry">
            <mxPoint x="190" y="120" as="targetPoint" />
          </mxGeometry>
        </mxCell>
        <mxCell id="kAQAbklGU4Ek4B-4lp5r-3" value="inscrire ageA" style="rounded=1;whiteSpace=wrap;html=1;arcSize=40;fontColor=#000000;fillColor=#ffffc0;strokeColor=#ff0000;" vertex="1" parent="1">
          <mxGeometry x="130" y="120" width="120" height="40" as="geometry" />
        </mxCell>
        <mxCell id="kAQAbklGU4Ek4B-4lp5r-4" value="" style="edgeStyle=orthogonalEdgeStyle;html=1;verticalAlign=bottom;endArrow=open;endSize=8;strokeColor=#ff0000;rounded=0;" edge="1" source="kAQAbklGU4Ek4B-4lp5r-3" parent="1">
          <mxGeometry relative="1" as="geometry">
            <mxPoint x="190" y="220" as="targetPoint" />
          </mxGeometry>
        </mxCell>
        <mxCell id="kAQAbklGU4Ek4B-4lp5r-5" value="ageA &amp;lt; 0" style="rhombus;whiteSpace=wrap;html=1;fontColor=#000000;fillColor=#ffffc0;strokeColor=#ff0000;" vertex="1" parent="1">
          <mxGeometry x="155" y="220" width="80" height="40" as="geometry" />
        </mxCell>
        <mxCell id="kAQAbklGU4Ek4B-4lp5r-6" value="Non" style="edgeStyle=orthogonalEdgeStyle;html=1;align=left;verticalAlign=bottom;endArrow=open;endSize=8;strokeColor=#ff0000;rounded=0;" edge="1" source="kAQAbklGU4Ek4B-4lp5r-5" parent="1">
          <mxGeometry x="-1" relative="1" as="geometry">
            <mxPoint x="335" y="240" as="targetPoint" />
          </mxGeometry>
        </mxCell>
        <mxCell id="kAQAbklGU4Ek4B-4lp5r-7" value="Oui" style="edgeStyle=orthogonalEdgeStyle;html=1;align=left;verticalAlign=top;endArrow=open;endSize=8;strokeColor=#ff0000;rounded=0;" edge="1" source="kAQAbklGU4Ek4B-4lp5r-5" parent="1">
          <mxGeometry x="-1" relative="1" as="geometry">
            <mxPoint x="195" y="320" as="targetPoint" />
          </mxGeometry>
        </mxCell>
        <mxCell id="kAQAbklGU4Ek4B-4lp5r-8" value="Vous n&#39;êtes pas né" style="rounded=1;whiteSpace=wrap;html=1;arcSize=40;fontColor=#000000;fillColor=#ffffc0;strokeColor=#ff0000;" vertex="1" parent="1">
          <mxGeometry x="135" y="320" width="120" height="40" as="geometry" />
        </mxCell>
        <mxCell id="kAQAbklGU4Ek4B-4lp5r-9" value="" style="edgeStyle=orthogonalEdgeStyle;html=1;verticalAlign=bottom;endArrow=open;endSize=8;strokeColor=#ff0000;rounded=0;" edge="1" source="kAQAbklGU4Ek4B-4lp5r-8" parent="1">
          <mxGeometry relative="1" as="geometry">
            <mxPoint x="195" y="420" as="targetPoint" />
          </mxGeometry>
        </mxCell>
        <mxCell id="kAQAbklGU4Ek4B-4lp5r-13" style="edgeStyle=orthogonalEdgeStyle;rounded=0;orthogonalLoop=1;jettySize=auto;html=1;" edge="1" parent="1" source="kAQAbklGU4Ek4B-4lp5r-10">
          <mxGeometry relative="1" as="geometry">
            <mxPoint x="400" y="330" as="targetPoint" />
          </mxGeometry>
        </mxCell>
        <mxCell id="kAQAbklGU4Ek4B-4lp5r-15" value="Oui" style="edgeLabel;html=1;align=center;verticalAlign=middle;resizable=0;points=[];" vertex="1" connectable="0" parent="kAQAbklGU4Ek4B-4lp5r-13">
          <mxGeometry x="-0.4163" y="1" relative="1" as="geometry">
            <mxPoint as="offset" />
          </mxGeometry>
        </mxCell>
        <mxCell id="kAQAbklGU4Ek4B-4lp5r-14" style="edgeStyle=orthogonalEdgeStyle;rounded=0;orthogonalLoop=1;jettySize=auto;html=1;" edge="1" parent="1" source="kAQAbklGU4Ek4B-4lp5r-10">
          <mxGeometry relative="1" as="geometry">
            <mxPoint x="530" y="240" as="targetPoint" />
          </mxGeometry>
        </mxCell>
        <mxCell id="kAQAbklGU4Ek4B-4lp5r-16" value="Non" style="edgeLabel;html=1;align=center;verticalAlign=middle;resizable=0;points=[];" vertex="1" connectable="0" parent="kAQAbklGU4Ek4B-4lp5r-14">
          <mxGeometry x="-0.4494" relative="1" as="geometry">
            <mxPoint as="offset" />
          </mxGeometry>
        </mxCell>
        <mxCell id="kAQAbklGU4Ek4B-4lp5r-10" value="ageA&amp;gt;0 ET ageA&amp;lt;18" style="rhombus;whiteSpace=wrap;html=1;fontColor=#000000;fillColor=#ffffc0;strokeColor=#ff0000;" vertex="1" parent="1">
          <mxGeometry x="330" y="210" width="140" height="60" as="geometry" />
        </mxCell>
        <mxCell id="kAQAbklGU4Ek4B-4lp5r-17" value="Vous êtes mineur" style="rounded=1;whiteSpace=wrap;html=1;arcSize=40;fontColor=#000000;fillColor=#ffffc0;strokeColor=#ff0000;" vertex="1" parent="1">
          <mxGeometry x="340" y="330" width="120" height="40" as="geometry" />
        </mxCell>
        <mxCell id="kAQAbklGU4Ek4B-4lp5r-18" value="" style="edgeStyle=orthogonalEdgeStyle;html=1;verticalAlign=bottom;endArrow=open;endSize=8;strokeColor=#ff0000;rounded=0;" edge="1" source="kAQAbklGU4Ek4B-4lp5r-17" parent="1">
          <mxGeometry relative="1" as="geometry">
            <mxPoint x="400" y="430" as="targetPoint" />
          </mxGeometry>
        </mxCell>
        <mxCell id="kAQAbklGU4Ek4B-4lp5r-19" value="Vous êtes majeur" style="rounded=1;whiteSpace=wrap;html=1;arcSize=40;fontColor=#000000;fillColor=#ffffc0;strokeColor=#ff0000;" vertex="1" parent="1">
          <mxGeometry x="530" y="220" width="120" height="40" as="geometry" />
        </mxCell>
        <mxCell id="kAQAbklGU4Ek4B-4lp5r-20" value="" style="edgeStyle=orthogonalEdgeStyle;html=1;verticalAlign=bottom;endArrow=open;endSize=8;strokeColor=#ff0000;rounded=0;" edge="1" source="kAQAbklGU4Ek4B-4lp5r-19" parent="1">
          <mxGeometry relative="1" as="geometry">
            <mxPoint x="590" y="320" as="targetPoint" />
          </mxGeometry>
        </mxCell>
        <mxCell id="kAQAbklGU4Ek4B-4lp5r-21" value="" style="ellipse;html=1;shape=endState;fillColor=#000000;strokeColor=#ff0000;" vertex="1" parent="1">
          <mxGeometry x="575" y="320" width="30" height="30" as="geometry" />
        </mxCell>
        <mxCell id="kAQAbklGU4Ek4B-4lp5r-22" value="" style="ellipse;html=1;shape=endState;fillColor=#000000;strokeColor=#ff0000;" vertex="1" parent="1">
          <mxGeometry x="385" y="430" width="30" height="30" as="geometry" />
        </mxCell>
        <mxCell id="kAQAbklGU4Ek4B-4lp5r-23" value="" style="ellipse;html=1;shape=endState;fillColor=#000000;strokeColor=#ff0000;" vertex="1" parent="1">
          <mxGeometry x="180" y="420" width="30" height="30" as="geometry" />
        </mxCell>
      </root>
    </mxGraphModel>
  </diagram>
</mxfile>
